<?xml version="1.0" standalone="no"?>
<!DOCTYPE svg PUBLIC "-//W3C//DTD SVG 20010904//EN"
 "http://www.w3.org/TR/2001/REC-SVG-20010904/DTD/svg10.dtd">
<svg version="1.0" xmlns="http://www.w3.org/2000/svg"
 width="3840.000000pt" height="3840.000000pt" viewBox="0 0 3840.000000 3840.000000"
 preserveAspectRatio="xMidYMid meet">

<g transform="translate(0.000000,3840.000000) scale(0.100000,-0.100000)"
fill="#000000" stroke="none">
<path d="M21815 21564 c-46 -5 -56 -9 -146 -53 -87 -42 -138 -87 -192 -169
-70 -107 -82 -149 -82 -283 0 -71 5 -122 12 -130 6 -8 14 -29 18 -46 3 -18 11
-35 16 -39 5 -3 15 -20 23 -37 7 -18 39 -60 71 -95 104 -114 267 -172 430
-152 39 4 79 11 90 15 68 26 127 58 172 94 131 103 213 311 184 463 -26 130
-71 217 -154 297 -46 45 -158 111 -187 111 -9 0 -20 4 -26 10 -11 11 -166 20
-229 14z"/>
<path d="M32270 19168 l0 -2278 425 0 425 0 0 205 c0 176 2 205 15 205 8 0 15
-5 15 -10 0 -15 144 -157 220 -216 86 -68 199 -134 285 -168 39 -16 79 -32 90
-37 51 -22 182 -47 309 -58 100 -10 354 8 421 29 17 5 57 17 90 26 33 9 74 23
92 30 17 8 38 14 47 14 9 0 16 5 16 12 0 6 3 9 6 5 9 -9 144 65 237 130 107
75 264 235 333 340 30 45 57 91 61 100 4 10 17 35 30 56 25 40 108 237 117
278 3 13 8 38 12 54 3 17 9 39 14 50 9 23 33 135 51 240 6 39 13 176 16 305 5
245 -9 398 -53 585 -9 39 -19 85 -21 103 -3 17 -8 32 -12 32 -4 0 -8 6 -8 13
-2 51 -117 308 -187 417 -132 203 -322 379 -514 475 -91 45 -159 75 -172 75
-5 0 -18 4 -28 9 -9 6 -66 22 -127 37 -101 26 -126 28 -310 29 -130 0 -219 -5
-255 -13 -99 -23 -175 -45 -184 -54 -6 -4 -17 -8 -25 -8 -26 0 -193 -84 -266
-133 -83 -56 -192 -154 -255 -229 -27 -31 -51 -54 -54 -51 -3 4 -6 381 -6 839
l0 834 -425 2 -425 3 0 -2277z m1874 294 c200 -70 340 -190 457 -392 89 -152
134 -427 111 -677 -6 -71 -16 -141 -21 -158 -5 -16 -15 -50 -22 -75 -19 -69
-96 -217 -150 -290 -47 -64 -113 -127 -174 -166 -16 -10 -32 -22 -35 -26 -3
-4 -39 -21 -80 -38 -41 -17 -84 -35 -95 -40 -24 -10 -60 -17 -183 -32 -87 -11
-190 -4 -267 16 -102 27 -189 58 -248 87 -100 51 -230 152 -288 225 l-29 37 0
595 0 595 42 51 c108 132 290 244 488 300 84 24 94 25 255 22 138 -3 157 -6
239 -34z"/>
<path d="M19740 20606 c0 -471 -4 -837 -9 -840 -8 -5 -63 55 -84 90 -4 7 -51
50 -105 94 -164 138 -330 224 -532 277 -98 25 -119 27 -310 27 -223 1 -292
-10 -475 -73 -303 -105 -582 -349 -736 -641 -19 -35 -40 -71 -46 -78 -7 -7
-13 -18 -13 -24 0 -9 -21 -63 -39 -98 -4 -8 -18 -49 -30 -90 -12 -41 -26 -86
-31 -100 -8 -24 -25 -104 -50 -235 -28 -152 -29 -629 -1 -765 6 -30 18 -93 27
-140 35 -190 134 -430 249 -605 77 -116 246 -287 360 -362 246 -163 489 -235
795 -235 167 0 302 25 465 86 70 26 200 98 272 150 106 76 263 229 263 256 0
6 6 10 13 8 9 -4 13 -57 15 -211 l2 -207 430 0 430 0 0 2275 0 2275 -430 0
-430 0 0 -834z m-553 -1127 c208 -50 394 -163 531 -323 l22 -26 0 -591 c0
-572 -1 -592 -20 -619 -11 -15 -17 -30 -13 -34 3 -3 2 -6 -3 -6 -5 0 -40 -29
-78 -65 -38 -36 -79 -71 -91 -78 -240 -134 -363 -170 -571 -170 -120 0 -138 3
-230 33 -147 49 -195 75 -304 170 -60 52 -145 169 -193 265 -58 119 -107 345
-107 500 0 79 28 286 41 300 5 5 9 17 9 27 0 30 47 155 81 216 87 155 207 271
355 345 79 40 86 42 194 67 19 4 93 8 164 9 98 1 148 -4 213 -20z"/>
<path d="M4025 20250 c-146 -17 -306 -55 -380 -91 -12 -6 -27 -11 -35 -13 -33
-6 -149 -63 -225 -109 -120 -73 -295 -243 -278 -270 3 -5 1 -7 -4 -4 -29 18
-141 -220 -168 -356 -23 -117 -17 -328 13 -437 45 -164 130 -302 248 -405 68
-58 155 -116 166 -109 5 3 8 1 8 -5 0 -11 93 -58 200 -99 151 -59 328 -105
680 -177 262 -53 343 -75 445 -124 99 -47 137 -78 166 -137 42 -88 11 -231
-67 -309 -87 -87 -268 -145 -456 -145 -351 0 -768 149 -1086 387 -41 31 -77
51 -82 47 -15 -16 -120 -193 -120 -203 0 -5 -4 -11 -8 -13 -4 -1 -45 -64 -91
-138 -47 -74 -97 -155 -113 -180 l-28 -45 42 -39 c109 -98 449 -296 510 -296
8 0 18 -4 24 -9 9 -9 109 -45 169 -61 17 -4 57 -16 90 -25 290 -83 786 -101
1080 -39 135 29 270 71 345 109 25 12 67 33 93 46 188 93 369 273 447 444 65
144 90 260 90 427 0 132 -5 164 -46 308 -28 95 -85 207 -104 202 -8 -2 -10 3
-6 13 6 17 -40 73 -126 153 -162 152 -442 277 -788 353 -25 6 -76 17 -115 24
-38 8 -90 19 -115 25 -45 10 -139 30 -260 54 -208 42 -364 131 -389 223 -15
54 -14 75 9 135 45 119 167 202 354 239 95 20 319 10 476 -21 208 -41 488
-180 621 -307 l37 -35 56 93 c87 144 203 342 248 420 7 13 19 32 27 42 18 21
10 29 -101 104 -118 80 -197 124 -383 209 -96 44 -292 97 -475 130 -99 17
-488 27 -595 14z"/>
<path d="M7660 20250 c-276 -36 -539 -123 -715 -239 -22 -14 -52 -32 -67 -40
-114 -59 -389 -335 -451 -454 -7 -12 -22 -36 -33 -52 -12 -17 -42 -70 -67
-120 -75 -149 -127 -325 -167 -559 -13 -78 -13 -411 0 -495 50 -314 130 -530
282 -762 74 -113 275 -321 380 -394 79 -54 226 -145 235 -145 3 0 29 -11 57
-24 116 -56 317 -114 471 -136 191 -28 297 -31 474 -15 97 8 194 20 216 25 22
6 60 14 85 19 149 29 340 113 499 220 123 82 321 278 321 318 0 7 -28 39 -62
71 -153 141 -250 231 -416 386 l-63 58 -72 -74 c-40 -41 -98 -94 -130 -117
-59 -43 -193 -111 -219 -111 -8 0 -18 -4 -23 -9 -6 -5 -59 -16 -119 -26 -292
-47 -598 51 -784 249 -155 166 -228 338 -262 621 -9 72 -8 114 4 210 23 184
40 244 106 376 67 135 148 230 270 315 71 50 85 58 162 90 122 51 232 67 413
61 123 -4 151 -8 233 -36 51 -17 125 -49 163 -72 75 -43 198 -153 226 -201 10
-15 22 -28 27 -28 5 0 44 33 85 73 42 39 139 131 216 202 76 72 165 155 196
185 l57 54 -30 43 c-48 66 -184 193 -282 262 -92 65 -239 142 -310 163 -23 7
-43 15 -46 18 -7 10 -117 38 -310 80 -66 14 -459 22 -550 10z"/>
<path d="M10960 20254 c-91 -7 -298 -45 -380 -69 -25 -7 -65 -18 -90 -26 -25
-7 -54 -17 -65 -23 -11 -5 -27 -11 -36 -13 -32 -5 -252 -103 -299 -133 -8 -5
-45 -27 -82 -49 -69 -41 -251 -176 -256 -190 -2 -7 70 -142 108 -201 5 -8 21
-37 35 -65 14 -27 45 -84 70 -125 25 -41 57 -98 72 -127 l26 -51 101 78 c112
86 136 101 251 159 263 131 540 177 795 132 116 -20 158 -33 248 -77 74 -36
108 -60 165 -117 40 -40 72 -76 73 -82 0 -5 10 -32 23 -60 40 -88 51 -182 51
-427 0 -253 0 -255 -61 -192 -52 55 -188 156 -249 186 -105 51 -151 69 -162
62 -6 -4 -8 -3 -5 2 12 19 -101 50 -308 85 -100 17 -151 20 -305 16 -273 -7
-448 -52 -635 -167 -70 -42 -235 -175 -235 -188 0 -4 -18 -27 -40 -52 -47 -52
-146 -246 -156 -305 -4 -22 -10 -45 -14 -50 -8 -9 -22 -113 -36 -260 -6 -65
16 -240 43 -340 68 -250 216 -443 458 -596 63 -41 182 -99 200 -99 4 0 21 -7
38 -14 79 -37 376 -82 461 -72 23 3 70 8 106 11 109 9 160 17 166 26 3 5 21 9
41 9 44 0 182 46 296 99 114 52 210 117 298 199 39 37 76 67 83 67 8 0 12 -50
14 -162 l2 -163 426 0 425 0 -4 1168 c-3 1058 -5 1174 -20 1247 -19 85 -66
243 -78 260 -3 6 -10 20 -13 32 -7 20 -34 68 -91 159 -59 92 -188 212 -315
290 -59 37 -86 51 -175 89 -66 29 -187 63 -276 80 -52 9 -107 21 -124 27 -30
9 -479 19 -565 12z m335 -1893 c118 -36 175 -56 209 -72 21 -10 43 -16 47 -13
5 3 9 1 9 -5 0 -6 15 -18 33 -27 17 -9 65 -49 105 -87 l72 -70 0 -201 c0 -198
0 -202 -25 -238 -29 -43 -116 -112 -198 -156 -65 -36 -211 -84 -303 -101 -78
-14 -290 -14 -351 0 -216 51 -357 148 -424 292 -31 65 -34 82 -37 178 -3 97
-1 113 24 175 72 184 216 290 454 334 56 11 344 4 385 -9z"/>
<path d="M15305 20251 c-77 -10 -220 -46 -315 -78 -198 -68 -392 -188 -545
-335 -44 -43 -83 -78 -87 -78 -5 0 -8 95 -8 210 l0 210 -425 0 -425 0 0 -1647
0 -1648 425 3 425 2 0 1110 0 1110 23 27 c108 132 243 235 372 288 22 9 48 21
57 26 21 11 83 27 158 41 87 16 343 3 411 -20 127 -45 231 -127 279 -223 13
-24 26 -46 29 -49 3 -3 15 -36 26 -75 19 -68 20 -108 23 -1152 l3 -1083 424 0
425 0 0 1255 c0 875 -3 1269 -11 1302 -6 27 -18 77 -26 113 -20 89 -41 143
-81 220 -130 245 -322 379 -657 460 -59 14 -414 22 -500 11z"/>
<path d="M29750 20250 c-193 -28 -365 -73 -446 -115 -16 -8 -36 -15 -46 -15
-9 0 -18 -3 -20 -7 -1 -5 -32 -22 -68 -40 -88 -44 -129 -69 -165 -100 -7 -7
-16 -13 -20 -13 -14 0 -100 -65 -149 -112 -135 -130 -161 -159 -221 -239 -36
-48 -65 -89 -65 -93 0 -4 -11 -22 -24 -39 -26 -34 -114 -208 -136 -267 -7 -19
-18 -49 -26 -66 -34 -78 -71 -259 -90 -449 -17 -164 -9 -352 22 -524 16 -91
92 -335 127 -411 32 -70 125 -229 170 -290 53 -73 256 -273 335 -330 136 -97
345 -201 492 -244 30 -9 69 -21 85 -26 17 -5 50 -12 75 -15 25 -4 54 -10 65
-15 11 -5 102 -16 203 -25 183 -16 301 -13 512 14 187 25 406 81 545 141 181
78 347 175 423 248 7 6 17 12 22 12 4 0 11 7 14 16 6 17 -115 210 -209 334
-23 30 -58 82 -78 115 -21 33 -46 71 -56 84 l-19 24 -58 -44 c-152 -115 -310
-186 -549 -245 -98 -25 -128 -28 -280 -28 -153 0 -180 2 -273 27 -57 15 -112
32 -123 38 -11 5 -23 7 -28 4 -5 -3 -11 -1 -13 4 -1 4 -28 21 -58 36 -139 70
-272 195 -348 328 -52 91 -99 224 -104 292 l-3 50 1228 3 1227 2 0 152 c0 84
-5 190 -11 237 -26 209 -78 464 -99 485 -6 6 -10 19 -10 29 0 10 -6 33 -14 50
-8 18 -29 66 -47 107 -18 41 -48 99 -66 128 -18 29 -33 55 -33 58 0 3 -19 33
-42 67 -107 160 -254 309 -404 409 -95 63 -266 150 -344 173 -30 9 -64 20 -75
25 -24 10 -82 24 -185 46 -86 18 -450 28 -540 14z m503 -704 c137 -46 205 -87
306 -181 118 -111 208 -294 227 -462 l7 -63 -822 0 -821 0 0 30 c0 58 70 275
95 292 5 4 6 8 2 8 -15 0 77 125 138 186 93 96 223 170 357 204 61 16 101 19
253 16 164 -3 187 -5 258 -30z"/>
<path d="M21480 18535 l0 -1645 430 0 430 0 0 1645 0 1645 -430 0 -430 0 0
-1645z"/>
<path d="M22805 20108 c13 -40 35 -113 50 -163 27 -93 73 -245 105 -350 11
-33 37 -118 59 -190 22 -71 56 -184 76 -250 20 -66 43 -140 50 -165 8 -25 32
-106 55 -180 23 -74 52 -173 66 -220 14 -47 32 -103 39 -125 7 -22 21 -67 30
-100 10 -33 21 -64 26 -69 5 -6 9 -20 9 -33 0 -12 11 -55 24 -95 30 -93 74
-235 126 -413 23 -77 45 -149 49 -160 5 -11 25 -76 45 -145 21 -69 62 -206 93
-305 30 -99 57 -189 60 -200 2 -11 9 -29 14 -40 10 -20 18 -20 468 -17 l459 2
6 28 c9 34 61 206 91 297 13 39 33 102 45 140 42 142 83 272 105 340 13 39 26
86 30 105 4 19 11 41 16 50 4 8 15 42 25 75 9 33 27 92 40 130 12 39 37 117
55 175 17 58 43 141 56 185 13 44 28 89 32 100 5 11 19 56 31 100 12 44 26 89
30 100 5 11 21 61 35 110 63 212 95 305 106 305 5 0 13 -19 19 -42 7 -24 24
-81 40 -128 15 -47 42 -132 60 -190 45 -150 62 -202 71 -225 4 -11 22 -67 39
-125 17 -58 35 -116 40 -130 4 -14 22 -72 40 -130 17 -58 42 -139 55 -180 13
-41 42 -136 65 -210 23 -74 45 -146 50 -160 12 -36 97 -310 127 -410 14 -47
29 -92 33 -100 4 -9 11 -31 14 -50 4 -19 11 -44 15 -55 5 -11 14 -39 21 -62
l13 -43 458 0 459 0 6 28 c3 15 12 45 19 67 14 39 115 368 140 455 21 72 72
238 100 330 14 47 30 99 34 115 25 89 113 372 121 387 6 10 10 24 10 32 0 14
16 67 56 191 12 39 25 86 29 105 4 19 10 40 14 45 4 6 16 39 26 75 9 36 23 83
31 105 7 22 32 103 54 180 23 77 50 165 60 195 21 65 71 229 75 244 6 30 20
79 45 156 16 47 38 119 50 160 12 41 26 86 30 100 5 14 23 72 40 130 18 58 38
123 45 145 l13 40 -441 3 c-242 1 -442 0 -444 -2 -3 -2 -9 -19 -13 -38 -9 -33
-54 -196 -70 -253 -5 -16 -18 -64 -29 -105 -11 -41 -30 -113 -44 -160 -13 -47
-40 -148 -61 -225 -21 -77 -41 -149 -46 -160 -4 -11 -15 -49 -25 -85 -15 -57
-36 -133 -102 -370 -23 -83 -30 -110 -46 -170 -8 -30 -23 -82 -32 -115 -22
-76 -30 -107 -48 -175 -8 -30 -31 -111 -50 -180 -19 -69 -38 -138 -41 -153 -9
-38 -28 -23 -45 35 -7 24 -19 59 -26 78 -7 19 -50 150 -95 290 -148 457 -211
653 -250 770 -21 63 -52 160 -70 215 -17 55 -35 109 -40 120 -4 11 -52 155
-105 320 -53 165 -100 308 -105 317 -6 10 -10 25 -10 33 0 13 -48 15 -383 15
l-384 0 -37 -117 c-21 -65 -44 -136 -52 -158 -7 -22 -18 -56 -23 -75 -5 -19
-32 -100 -59 -180 -27 -80 -73 -219 -102 -310 -28 -91 -61 -187 -71 -215 -10
-27 -22 -66 -25 -85 -4 -19 -10 -39 -14 -45 -9 -13 -150 -449 -150 -464 0 -6
-4 -19 -10 -29 -5 -9 -20 -51 -33 -92 -81 -259 -143 -440 -153 -444 -6 -2 -26
53 -48 133 -43 156 -49 176 -72 251 -9 30 -18 64 -20 75 -2 11 -24 94 -50 185
-25 91 -57 207 -70 257 -13 51 -29 105 -35 120 -7 16 -17 53 -25 83 -14 59
-28 113 -68 255 -31 111 -103 372 -121 440 -7 28 -20 75 -29 105 -9 30 -18 66
-22 80 -3 14 -9 34 -14 45 -10 23 -29 95 -38 145 l-7 35 -447 3 -447 2 24 -72z"/>
</g>
</svg>
